<?xml version="1.0" encoding="iso-8859-1"?>
<!-- Uploaded to: SVG Repo, www.svgrepo.com, Generator: SVG Repo Mixer Tools -->
<svg height="800px" width="800px" version="1.1" id="Layer_1" xmlns="http://www.w3.org/2000/svg" xmlns:xlink="http://www.w3.org/1999/xlink" 
	 viewBox="0 0 512.013 512.013" xml:space="preserve">
<path style="fill:#38454F;" d="M494.3,163.306l-80.8-33.7c-9.9-4.1-14.7-11.4-18.7-20.9c-4.4-10.4-6.4-21.6-6.4-32.8
	c0-15.1-12.3-27.4-27.4-27.4H254.1c-13.6,0-24.6,11-24.6,24.6v3.9c0,11.4-2.3,22.8-7.9,32.6c-4.4,7.8-10.2,13-19.9,14.8l-132.1,23.8
	c-40.6,8.8-69.6,44.8-69.6,86.3v190.2c0,11.7,9.4,21.1,21.1,21.1h215.3c21.8,11.2,46.4,17.7,72.6,17.7s50.8-6.4,72.6-17.7h112.8
	C517.9,445.806,517.9,163.306,494.3,163.306"/>
<g>
	<path style="fill:#283238;" d="M467.9,304.606c0,87.8-71.1,158.9-158.9,158.9s-158.9-71.1-158.9-158.9s71.1-158.9,158.9-158.9
		S467.9,216.806,467.9,304.606"/>
	<path style="fill:#283238;" d="M129.2,231.406c7.5-15.1,7.5-32.9,0-48l-18.9-37.8l-27.8,0.2l-12.9,2.3
		c-40.6,8.9-69.6,44.9-69.6,86.4v190.2c0,11.7,9.4,21.1,21.1,21.1h102.5v-190.4C123.6,247.106,125.5,238.906,129.2,231.406"/>
	<path style="fill:#283238;" d="M494.3,163.306l-80.8-33.7c-6.2-2.6-10.2-6.4-13.4-11.2l9.3-22.6c0.7-1.7,2.7-2.6,4.5-1.9l91.7,37.6
		c1.7,0.7,2.6,2.7,1.9,4.4l-10.8,26.3C495.7,162.806,495.2,163.006,494.3,163.306"/>
</g>
<path style="fill:#38454F;" d="M105.9,203.006c0,12.2-13.8,22.1-30.9,22.1s-30.9-9.9-30.9-22.1s13.9-22,30.9-22
	S105.9,190.806,105.9,203.006"/>
<path style="fill:#283238;" d="M462.8,189.806h-16.4c-7.7,0-13.9,6.2-13.9,13.9v1.1c7.2,9,13.4,18.7,18.6,29.1h11.7
	c7.6,0,13.9-6.2,13.9-13.9v-16.4C476.7,196.006,470.5,189.806,462.8,189.806"/>
<path style="fill:#434C6D;" d="M309,419.306c-63.3,0-114.8-51.5-114.8-114.8s51.5-114.7,114.8-114.7s114.8,51.5,114.8,114.8
	S372.2,419.306,309,419.306"/>
<path style="fill:#7383BF;" d="M309,426.306c-67.1,0-121.8-54.6-121.8-121.8c0-67.1,54.6-121.8,121.8-121.8
	c67.1,0,121.8,54.6,121.8,121.8C430.7,371.706,376.1,426.306,309,426.306z M309,196.806c-59.4,0-107.8,48.3-107.8,107.8
	c0,59.4,48.3,107.8,107.8,107.8c59.4,0,107.8-48.3,107.8-107.8C416.7,245.106,368.4,196.806,309,196.806z"/>
<g>
	<path style="fill:#FFFFFF;" d="M335.4,384.006c-2.3,0-4.5-0.9-6.2-2.6c-3.5-3.5-3.5-9,0-12.5l35.3-35.3c3.5-3.5,9-3.5,12.5,0
		s3.5,9,0,12.5l-35.3,35.3C340,383.106,337.7,384.006,335.4,384.006"/>
	<path style="fill:#FFFFFF;" d="M300.1,375.206c-2.3,0-4.5-0.9-6.2-2.6c-3.5-3.5-3.5-9,0-12.5l61.8-61.8c3.5-3.5,9-3.5,12.5,0
		s3.5,9,0,12.5l-61.8,61.8C304.7,374.306,302.4,375.206,300.1,375.206"/>
</g>
<path style="fill:#283238;" d="M345.9,110.306h-73.8c-4,0-7.2-3.2-7.2-7.2v-12c0-4,3.2-7.2,7.2-7.2h73.8c4,0,7.2,3.2,7.2,7.2v12
	C353.1,107.106,349.9,110.306,345.9,110.306"/>
<path style="fill:#FFFFFF;" d="M317.8,313.406c0,4.9-4,8.8-8.8,8.8s-8.8-4-8.8-8.8s4-8.8,8.8-8.8S317.8,308.506,317.8,313.406"/>
</svg>